<svg width="14" height="13" viewBox="0 0 14 13" fill="none" xmlns="http://www.w3.org/2000/svg">
<path d="M12.4997 7.41439H7.91634V11.9977C7.91634 12.2408 7.81976 12.474 7.64786 12.6459C7.47595 12.8178 7.24279 12.9144 6.99967 12.9144C6.75656 12.9144 6.5234 12.8178 6.35149 12.6459C6.17958 12.474 6.08301 12.2408 6.08301 11.9977V7.41439H1.49967C1.25656 7.41439 1.0234 7.31781 0.851493 7.1459C0.679585 6.97399 0.583008 6.74084 0.583008 6.49772C0.583008 6.25461 0.679585 6.02145 0.851493 5.84954C1.0234 5.67763 1.25656 5.58105 1.49967 5.58105H6.08301V0.997721C6.08301 0.754606 6.17958 0.521448 6.35149 0.34954C6.5234 0.177632 6.75656 0.0810547 6.99967 0.0810547C7.24279 0.0810547 7.47595 0.177632 7.64786 0.34954C7.81976 0.521448 7.91634 0.754606 7.91634 0.997721V5.58105H12.4997C12.7428 5.58105 12.9759 5.67763 13.1479 5.84954C13.3198 6.02145 13.4163 6.25461 13.4163 6.49772C13.4163 6.74084 13.3198 6.97399 13.1479 7.1459C12.9759 7.31781 12.7428 7.41439 12.4997 7.41439Z" fill="white"/>
</svg>
