<svg width="8" height="10" viewBox="0 0 8 10" fill="none" xmlns="http://www.w3.org/2000/svg">
    <path d="M1.824 5.764C1.824 7.936 3.096 9.076 4.572 9.076H6.984L6.852 10H1.08L1.212 9.076H2.484C1.368 8.512 0.66 7.408 0.66 5.644C0.66 3.904 1.524 2.56 2.892 2.056V0.964H3.732V1.864C3.864 1.852 4.008 1.84 4.152 1.84C4.296 1.84 4.44 1.852 4.572 1.864V0.964H5.412V2.056C6.78 2.548 7.644 3.916 7.644 5.92H6.48C6.48 4.396 6.084 3.496 5.412 3.064V5.92H4.572V2.764C4.44 2.752 4.296 2.74 4.152 2.74C4.008 2.74 3.864 2.752 3.732 2.764V5.92H2.892V3.064C2.22 3.496 1.824 4.348 1.824 5.764Z" fill="#2D3648"/>
</svg>
